<mxfile host="app.diagrams.net" modified="2023-06-15T07:13:13.829Z" agent="Mozilla/5.0 (X11; Linux x86_64) AppleWebKit/537.36 (KHTML, like Gecko) Chrome/112.0.0.0 Safari/537.36" version="21.3.8" etag="rpVzChrdHMDM50a_21zQ" type="github">
  <diagram name="第 1 页" id="7gpwbmn_6i7DgV1BHEUy">
    <mxGraphModel>
      <root>
        <mxCell id="0" />
        <mxCell id="1" parent="0" />
      </root>
    </mxGraphModel>
  </diagram>
</mxfile>
